<svg xmlns="http://www.w3.org/2000/svg" viewBox="0 0 960 562" role="img" aria-label="A three-variable truth table for F equal to sum m(0, 1, 4, 5, 7) on the left, with the five rows whose output is 1 tinted and row 5 outlined, and an arrow to the same function drawn on a three-variable Karnaugh map on the right with cell m5 outlined to match.">
  <style>
    svg { background: #fff; }
    text { font-family: Inter, Helvetica, Arial, sans-serif; }
    .title  { font-size: 30px; font-weight: 700; fill: #102a43; }
    .sub    { font-size: 19px; fill: #8198af; }
    .hdr    { font-size: 22px; font-weight: 700; fill: #41556b; }
    .corner { font-size: 18px; font-weight: 700; fill: #8198af; }
    .val    { font-size: 34px; font-weight: 700; fill: #102a43; }
    .val0   { font-size: 34px; font-weight: 700; fill: #b9c6d4; }
    .valx   { font-size: 34px; font-weight: 700; fill: #7e93a8; }
    .idx    { font-size: 15px; fill: #a3b2c2; }
    .note   { font-size: 19px; fill: #41556b; }
    .grid   { fill: none; stroke: #aab9c9; stroke-width: 2; }
    .gridh  { fill: none; stroke: #52677e; stroke-width: 3; }
    .frame  { fill: none; stroke: #52677e; stroke-width: 3.5; }
    .cap    { font-size: 20px; font-weight: 700; fill: #41556b; }
    .capsub { font-size: 17px; fill: #8198af; }
  </style>
<defs><marker id="ah" viewBox="0 0 12 12" refX="10" refY="6" markerWidth="7" markerHeight="7" orient="auto"><path d="M0,1 L11,6 L0,11 z" fill="#8198af"/></marker></defs>
<text class="title" x="36" y="52">From truth table to map</text>
<text class="sub" x="36" y="88">Every row of the table is one cell of the map. F = &#931;m(0, 1, 4, 5, 7).</text>
<rect x="50" y="128" width="48" height="36" fill="#eef2f7" stroke="#aab9c9" stroke-width="2"/>
<text x="74" y="152" text-anchor="middle" font-size="18" font-weight="700" fill="#41556b">#</text>
<rect x="98" y="128" width="48" height="36" fill="#eef2f7" stroke="#aab9c9" stroke-width="2"/>
<text x="122" y="152" text-anchor="middle" font-size="18" font-weight="700" fill="#41556b">A</text>
<rect x="146" y="128" width="48" height="36" fill="#eef2f7" stroke="#aab9c9" stroke-width="2"/>
<text x="170" y="152" text-anchor="middle" font-size="18" font-weight="700" fill="#41556b">B</text>
<rect x="194" y="128" width="48" height="36" fill="#eef2f7" stroke="#aab9c9" stroke-width="2"/>
<text x="218" y="152" text-anchor="middle" font-size="18" font-weight="700" fill="#41556b">C</text>
<rect x="242" y="128" width="58" height="36" fill="#eef2f7" stroke="#aab9c9" stroke-width="2"/>
<text x="271" y="152" text-anchor="middle" font-size="18" font-weight="700" fill="#41556b">F</text>
<rect x="50" y="164" width="48" height="36" fill="#fff7e6" stroke="#aab9c9" stroke-width="2"/>
<rect x="98" y="164" width="48" height="36" fill="#fff7e6" stroke="#aab9c9" stroke-width="2"/>
<rect x="146" y="164" width="48" height="36" fill="#fff7e6" stroke="#aab9c9" stroke-width="2"/>
<rect x="194" y="164" width="48" height="36" fill="#fff7e6" stroke="#aab9c9" stroke-width="2"/>
<rect x="242" y="164" width="58" height="36" fill="#fff7e6" stroke="#aab9c9" stroke-width="2"/>
<text x="74" y="189" text-anchor="middle" font-size="18" font-weight="700" fill="#102a43">0</text>
<text x="122" y="189" text-anchor="middle" font-size="18" font-weight="600" fill="#41556b">0</text>
<text x="170" y="189" text-anchor="middle" font-size="18" font-weight="600" fill="#41556b">0</text>
<text x="218" y="189" text-anchor="middle" font-size="18" font-weight="600" fill="#41556b">0</text>
<text x="271" y="189" text-anchor="middle" font-size="18" font-weight="700" fill="#e0890b">1</text>
<rect x="50" y="200" width="48" height="36" fill="#fff7e6" stroke="#aab9c9" stroke-width="2"/>
<rect x="98" y="200" width="48" height="36" fill="#fff7e6" stroke="#aab9c9" stroke-width="2"/>
<rect x="146" y="200" width="48" height="36" fill="#fff7e6" stroke="#aab9c9" stroke-width="2"/>
<rect x="194" y="200" width="48" height="36" fill="#fff7e6" stroke="#aab9c9" stroke-width="2"/>
<rect x="242" y="200" width="58" height="36" fill="#fff7e6" stroke="#aab9c9" stroke-width="2"/>
<text x="74" y="225" text-anchor="middle" font-size="18" font-weight="700" fill="#102a43">1</text>
<text x="122" y="225" text-anchor="middle" font-size="18" font-weight="600" fill="#41556b">0</text>
<text x="170" y="225" text-anchor="middle" font-size="18" font-weight="600" fill="#41556b">0</text>
<text x="218" y="225" text-anchor="middle" font-size="18" font-weight="600" fill="#41556b">1</text>
<text x="271" y="225" text-anchor="middle" font-size="18" font-weight="700" fill="#e0890b">1</text>
<rect x="50" y="236" width="48" height="36" fill="#fff" stroke="#aab9c9" stroke-width="2"/>
<rect x="98" y="236" width="48" height="36" fill="#fff" stroke="#aab9c9" stroke-width="2"/>
<rect x="146" y="236" width="48" height="36" fill="#fff" stroke="#aab9c9" stroke-width="2"/>
<rect x="194" y="236" width="48" height="36" fill="#fff" stroke="#aab9c9" stroke-width="2"/>
<rect x="242" y="236" width="58" height="36" fill="#fff" stroke="#aab9c9" stroke-width="2"/>
<text x="74" y="261" text-anchor="middle" font-size="18" font-weight="700" fill="#102a43">2</text>
<text x="122" y="261" text-anchor="middle" font-size="18" font-weight="600" fill="#41556b">0</text>
<text x="170" y="261" text-anchor="middle" font-size="18" font-weight="600" fill="#41556b">1</text>
<text x="218" y="261" text-anchor="middle" font-size="18" font-weight="600" fill="#41556b">0</text>
<text x="271" y="261" text-anchor="middle" font-size="18" font-weight="700" fill="#b9c6d4">0</text>
<rect x="50" y="272" width="48" height="36" fill="#fff" stroke="#aab9c9" stroke-width="2"/>
<rect x="98" y="272" width="48" height="36" fill="#fff" stroke="#aab9c9" stroke-width="2"/>
<rect x="146" y="272" width="48" height="36" fill="#fff" stroke="#aab9c9" stroke-width="2"/>
<rect x="194" y="272" width="48" height="36" fill="#fff" stroke="#aab9c9" stroke-width="2"/>
<rect x="242" y="272" width="58" height="36" fill="#fff" stroke="#aab9c9" stroke-width="2"/>
<text x="74" y="297" text-anchor="middle" font-size="18" font-weight="700" fill="#102a43">3</text>
<text x="122" y="297" text-anchor="middle" font-size="18" font-weight="600" fill="#41556b">0</text>
<text x="170" y="297" text-anchor="middle" font-size="18" font-weight="600" fill="#41556b">1</text>
<text x="218" y="297" text-anchor="middle" font-size="18" font-weight="600" fill="#41556b">1</text>
<text x="271" y="297" text-anchor="middle" font-size="18" font-weight="700" fill="#b9c6d4">0</text>
<rect x="50" y="308" width="48" height="36" fill="#fff7e6" stroke="#aab9c9" stroke-width="2"/>
<rect x="98" y="308" width="48" height="36" fill="#fff7e6" stroke="#aab9c9" stroke-width="2"/>
<rect x="146" y="308" width="48" height="36" fill="#fff7e6" stroke="#aab9c9" stroke-width="2"/>
<rect x="194" y="308" width="48" height="36" fill="#fff7e6" stroke="#aab9c9" stroke-width="2"/>
<rect x="242" y="308" width="58" height="36" fill="#fff7e6" stroke="#aab9c9" stroke-width="2"/>
<text x="74" y="333" text-anchor="middle" font-size="18" font-weight="700" fill="#102a43">4</text>
<text x="122" y="333" text-anchor="middle" font-size="18" font-weight="600" fill="#41556b">1</text>
<text x="170" y="333" text-anchor="middle" font-size="18" font-weight="600" fill="#41556b">0</text>
<text x="218" y="333" text-anchor="middle" font-size="18" font-weight="600" fill="#41556b">0</text>
<text x="271" y="333" text-anchor="middle" font-size="18" font-weight="700" fill="#e0890b">1</text>
<rect x="50" y="344" width="48" height="36" fill="#fff7e6" stroke="#aab9c9" stroke-width="2"/>
<rect x="98" y="344" width="48" height="36" fill="#fff7e6" stroke="#aab9c9" stroke-width="2"/>
<rect x="146" y="344" width="48" height="36" fill="#fff7e6" stroke="#aab9c9" stroke-width="2"/>
<rect x="194" y="344" width="48" height="36" fill="#fff7e6" stroke="#aab9c9" stroke-width="2"/>
<rect x="242" y="344" width="58" height="36" fill="#fff7e6" stroke="#aab9c9" stroke-width="2"/>
<text x="74" y="369" text-anchor="middle" font-size="18" font-weight="700" fill="#102a43">5</text>
<text x="122" y="369" text-anchor="middle" font-size="18" font-weight="600" fill="#41556b">1</text>
<text x="170" y="369" text-anchor="middle" font-size="18" font-weight="600" fill="#41556b">0</text>
<text x="218" y="369" text-anchor="middle" font-size="18" font-weight="600" fill="#41556b">1</text>
<text x="271" y="369" text-anchor="middle" font-size="18" font-weight="700" fill="#e0890b">1</text>
<rect x="50" y="380" width="48" height="36" fill="#fff" stroke="#aab9c9" stroke-width="2"/>
<rect x="98" y="380" width="48" height="36" fill="#fff" stroke="#aab9c9" stroke-width="2"/>
<rect x="146" y="380" width="48" height="36" fill="#fff" stroke="#aab9c9" stroke-width="2"/>
<rect x="194" y="380" width="48" height="36" fill="#fff" stroke="#aab9c9" stroke-width="2"/>
<rect x="242" y="380" width="58" height="36" fill="#fff" stroke="#aab9c9" stroke-width="2"/>
<text x="74" y="405" text-anchor="middle" font-size="18" font-weight="700" fill="#102a43">6</text>
<text x="122" y="405" text-anchor="middle" font-size="18" font-weight="600" fill="#41556b">1</text>
<text x="170" y="405" text-anchor="middle" font-size="18" font-weight="600" fill="#41556b">1</text>
<text x="218" y="405" text-anchor="middle" font-size="18" font-weight="600" fill="#41556b">0</text>
<text x="271" y="405" text-anchor="middle" font-size="18" font-weight="700" fill="#b9c6d4">0</text>
<rect x="50" y="416" width="48" height="36" fill="#fff7e6" stroke="#aab9c9" stroke-width="2"/>
<rect x="98" y="416" width="48" height="36" fill="#fff7e6" stroke="#aab9c9" stroke-width="2"/>
<rect x="146" y="416" width="48" height="36" fill="#fff7e6" stroke="#aab9c9" stroke-width="2"/>
<rect x="194" y="416" width="48" height="36" fill="#fff7e6" stroke="#aab9c9" stroke-width="2"/>
<rect x="242" y="416" width="58" height="36" fill="#fff7e6" stroke="#aab9c9" stroke-width="2"/>
<text x="74" y="441" text-anchor="middle" font-size="18" font-weight="700" fill="#102a43">7</text>
<text x="122" y="441" text-anchor="middle" font-size="18" font-weight="600" fill="#41556b">1</text>
<text x="170" y="441" text-anchor="middle" font-size="18" font-weight="600" fill="#41556b">1</text>
<text x="218" y="441" text-anchor="middle" font-size="18" font-weight="600" fill="#41556b">1</text>
<text x="271" y="441" text-anchor="middle" font-size="18" font-weight="700" fill="#e0890b">1</text>
<rect x="47" y="341" width="256" height="42" rx="6" fill="none" stroke="#7c3aed" stroke-width="3.5"/>
<line class="grid" x1="656" y1="182" x2="656" y2="354"/>
<line class="gridh" x1="742" y1="182" x2="742" y2="354"/>
<line class="grid" x1="828" y1="182" x2="828" y2="354"/>
<line class="gridh" x1="570" y1="268" x2="914" y2="268"/>
<rect class="frame" x="570" y="182" width="344" height="172"/>
<rect x="661.0" y="273.0" width="76.0" height="76.0" rx="10" fill="#7c3aed" fill-opacity="0.09" stroke="#7c3aed" stroke-width="3.5"/>
<text class="hdr" x="613" y="168" text-anchor="middle" font-size="22">00</text>
<text class="hdr" x="699" y="168" text-anchor="middle" font-size="22">01</text>
<text class="hdr" x="785" y="168" text-anchor="middle" font-size="22">11</text>
<text class="hdr" x="871" y="168" text-anchor="middle" font-size="22">10</text>
<text class="hdr" x="554" y="233" text-anchor="end" font-size="22">0</text>
<text class="hdr" x="554" y="319" text-anchor="end" font-size="22">1</text>
<text class="corner" x="554" y="168" text-anchor="end">A \ BC</text>
<text class="val" x="613" y="237" text-anchor="middle" font-size="34">1</text>
<text class="idx" x="578" y="203" text-anchor="start" paint-order="stroke" stroke="#fff" stroke-width="3.5" stroke-linejoin="round">m0</text>
<text class="val" x="699" y="237" text-anchor="middle" font-size="34">1</text>
<text class="idx" x="664" y="203" text-anchor="start" paint-order="stroke" stroke="#fff" stroke-width="3.5" stroke-linejoin="round">m1</text>
<text class="val0" x="785" y="237" text-anchor="middle" font-size="34">0</text>
<text class="idx" x="750" y="203" text-anchor="start" paint-order="stroke" stroke="#fff" stroke-width="3.5" stroke-linejoin="round">m3</text>
<text class="val0" x="871" y="237" text-anchor="middle" font-size="34">0</text>
<text class="idx" x="836" y="203" text-anchor="start" paint-order="stroke" stroke="#fff" stroke-width="3.5" stroke-linejoin="round">m2</text>
<text class="val" x="613" y="323" text-anchor="middle" font-size="34">1</text>
<text class="idx" x="578" y="289" text-anchor="start" paint-order="stroke" stroke="#fff" stroke-width="3.5" stroke-linejoin="round">m4</text>
<text class="val" x="699" y="323" text-anchor="middle" font-size="34">1</text>
<text class="idx" x="664" y="289" text-anchor="start" paint-order="stroke" stroke="#fff" stroke-width="3.5" stroke-linejoin="round">m5</text>
<text class="val" x="785" y="323" text-anchor="middle" font-size="34">1</text>
<text class="idx" x="750" y="289" text-anchor="start" paint-order="stroke" stroke="#fff" stroke-width="3.5" stroke-linejoin="round">m7</text>
<text class="val0" x="871" y="323" text-anchor="middle" font-size="34">0</text>
<text class="idx" x="836" y="289" text-anchor="start" paint-order="stroke" stroke="#fff" stroke-width="3.5" stroke-linejoin="round">m6</text>
<path d="M332,268 H518" fill="none" stroke="#8198af" stroke-width="4" marker-end="url(#ah)"/>
<text x="425" y="252" text-anchor="middle" font-size="18" font-weight="700" fill="#7c3aed">row 5 &#8594; cell m5</text>
<text class="note" x="36" y="502">Row 5 is A B C = 101, so its cell sits in the A = 1 row under the B C = 01 column. Gray</text>
<text class="note" x="36" y="528">order changes where a row lands on the page, never what the row says.</text>
</svg>
