<svg xmlns="http://www.w3.org/2000/svg" viewBox="0 0 1000 620" width="1000" height="620">

  <style>
    svg { background: #fff; }
    .title { font-family: Inter, Helvetica, Arial, sans-serif; font-size: 32px; font-weight: 700; fill: #24313f; }
    .label { font-family: Inter, Helvetica, Arial, sans-serif; font-size: 23px; fill: #24313f; }
    .small { font-family: Inter, Helvetica, Arial, sans-serif; font-size: 18px; fill: #64748b; }
    .tiny { font-family: Inter, Helvetica, Arial, sans-serif; font-size: 15px; fill: #64748b; }
    .math { font-family: ui-monospace, SFMono-Regular, Menlo, Consolas, monospace; font-size: 20px; fill: #24313f; }
    .wire { fill: none; stroke: #24313f; stroke-width: 4; stroke-linecap: round; stroke-linejoin: round; }
    .thin { fill: none; stroke: #dbe3ee; stroke-width: 2; stroke-linecap: round; stroke-linejoin: round; }
    .dash { fill: none; stroke: #64748b; stroke-width: 2.5; stroke-dasharray: 8 8; stroke-linecap: round; }
    .current { fill: none; stroke: #2563eb; stroke-width: 4; stroke-linecap: round; stroke-linejoin: round; marker-end: url(#arrow-blue); }
    .arrow { fill: none; stroke: #24313f; stroke-width: 2.5; stroke-linecap: round; stroke-linejoin: round; marker-end: url(#arrow-dark); }
    .box { fill: #f8fafc; stroke: #dbe3ee; stroke-width: 2.5; rx: 8; }
    .blue { fill: #dbeafe; stroke: #93c5fd; stroke-width: 2.5; rx: 8; }
    .orange { fill: #ffedd5; stroke: #fdba74; stroke-width: 2.5; rx: 8; }
    .green { fill: #dcfce7; stroke: #86efac; stroke-width: 2.5; rx: 8; }
    .red { fill: #fee2e2; stroke: #fca5a5; stroke-width: 2.5; rx: 8; }
    .node { fill: #fff; stroke: #24313f; stroke-width: 3; }
    .res { fill: #fff; stroke: #24313f; stroke-width: 3; rx: 7; }
    .rail { fill: #24313f; }
    .bar-bg { fill: #e2e8f0; }
    .bar-good { fill: #16a34a; }
    .bar-warn { fill: #f97316; }
    .bar-bad { fill: #dc2626; }
  </style>
  <defs>
    <marker id="arrow-blue" viewBox="0 0 10 10" refX="8" refY="5" markerWidth="7" markerHeight="7" orient="auto-start-reverse">
      <path d="M 0 0 L 10 5 L 0 10 z" fill="#2563eb"/>
    </marker>
    <marker id="arrow-dark" viewBox="0 0 10 10" refX="8" refY="5" markerWidth="7" markerHeight="7" orient="auto-start-reverse">
      <path d="M 0 0 L 10 5 L 0 10 z" fill="#24313f"/>
    </marker>
  </defs>


    <text class="title" x="52" y="58">CMOS inverter as a switched voltage divider</text>
    <line class="wire" x1="310" y1="120" x2="310" y2="168"/>
    <rect class="rail" x="260" y="112" width="100" height="10"/>
    <text class="label" x="378" y="128">VDD</text>
    
    <rect class="res" x="248" y="182" width="124" height="84"/>
    <text class="label" x="290" y="220">RP</text>
    <text class="tiny" x="268" y="248">PMOS pull-up</text>
    
    <line class="wire" x1="310" y1="266" x2="310" y2="330"/>
    <circle class="node" cx="310" cy="330" r="8"/>
    <line class="wire" x1="310" y1="330" x2="438" y2="330"/>
    <text class="label" x="458" y="338">Y = output</text>
    <line class="wire" x1="310" y1="330" x2="310" y2="386"/>
    
    <rect class="res" x="248" y="400" width="124" height="84"/>
    <text class="label" x="290" y="438">RN</text>
    <text class="tiny" x="268" y="466">NMOS pull-down</text>
    
    <line class="wire" x1="310" y1="484" x2="310" y2="528"/>
    <line class="wire" x1="260" y1="528" x2="360" y2="528"/>
    <line class="wire" x1="276" y1="544" x2="344" y2="544"/>
    <line class="wire" x1="294" y1="560" x2="326" y2="560"/>
    <rect class="blue" x="584" y="132" width="352" height="112"/>
    <text class="label" x="616" y="176">Input A controls both resistances</text>
    <text class="small" x="616" y="208">One device is low-R while the other is high-R.</text>
    <rect class="green" x="584" y="292" width="352" height="128"/>
    <text class="label" x="616" y="338">Voltage divider</text>
    <text class="math" x="616" y="374">VY = VDD * RN / (RP + RN)</text>
    <rect class="orange" x="584" y="462" width="352" height="86"/>
    <text class="label" x="616" y="512">Current leaks through the series path</text>
    <path class="current" d="M 250 170 C 200 240, 200 420, 250 496"/>
    <text class="small" x="144" y="336">supply current</text>
    
</svg>
