<svg xmlns="http://www.w3.org/2000/svg" viewBox="0 0 1040 560" width="1040" height="560">

  <style>
    svg { background: #ffffff; }
    .title { font-family: Inter, Helvetica, Arial, sans-serif; font-size: 32px; font-weight: 700; fill: #24313f; }
    .label { font-family: Inter, Helvetica, Arial, sans-serif; font-size: 23px; fill: #24313f; }
    .small { font-family: Inter, Helvetica, Arial, sans-serif; font-size: 18px; fill: #64748b; }
    .tiny { font-family: Inter, Helvetica, Arial, sans-serif; font-size: 15px; fill: #64748b; }
    .mono { font-family: ui-monospace, SFMono-Regular, Menlo, Consolas, monospace; font-size: 20px; fill: #24313f; }
    .mono-small { font-family: ui-monospace, SFMono-Regular, Menlo, Consolas, monospace; font-size: 17px; fill: #24313f; }
    .box { fill: #f8fafc; stroke: #dbe3ee; stroke-width: 2; rx: 8; }
    .blue { fill: #eff6ff; stroke: #bfdbfe; stroke-width: 2; rx: 8; }
    .orange { fill: #fff7ed; stroke: #fed7aa; stroke-width: 2; rx: 8; }
    .green { fill: #f0fdf4; stroke: #bbf7d0; stroke-width: 2; rx: 8; }
    .red { fill: #fef2f2; stroke: #fecaca; stroke-width: 2; rx: 8; }
    .line { fill: none; stroke: #24313f; stroke-width: 3; stroke-linecap: round; stroke-linejoin: round; }
    .thin { fill: none; stroke: #dbe3ee; stroke-width: 2; }
    .arrow { fill: none; stroke: #24313f; stroke-width: 2.6; stroke-linecap: round; stroke-linejoin: round; marker-end: url(#arrow-dark); }
    .arrow-blue { fill: none; stroke: #2563eb; stroke-width: 3; stroke-linecap: round; stroke-linejoin: round; marker-end: url(#arrow-blue); }
    .one { fill: #dbeafe; stroke: #93c5fd; stroke-width: 2; }
    .zero { fill: #ffedd5; stroke: #fdba74; stroke-width: 2; }
    .hit-one { fill: #bfdbfe; stroke: #2563eb; stroke-width: 2; }
    .hit-zero { fill: #fed7aa; stroke: #f97316; stroke-width: 2; }
  </style>
  <defs>
    <marker id="arrow-dark" viewBox="0 0 10 10" refX="8" refY="5" markerWidth="7" markerHeight="7" orient="auto-start-reverse">
      <path d="M 0 0 L 10 5 L 0 10 z" fill="#24313f"/>
    </marker>
    <marker id="arrow-blue" viewBox="0 0 10 10" refX="8" refY="5" markerWidth="7" markerHeight="7" orient="auto-start-reverse">
      <path d="M 0 0 L 10 5 L 0 10 z" fill="#2563eb"/>
    </marker>
  </defs>


    <text class="title" x="52" y="58">POS: build the rows where the output is 0</text>
    <rect class="box" x="36" y="100" width="78" height="43"/><text class="mono-small" x="75.0" y="128.5" text-anchor="middle">row</text>
<rect class="box" x="114" y="100" width="78" height="43"/><text class="mono-small" x="153.0" y="128.5" text-anchor="middle">A</text>
<rect class="box" x="192" y="100" width="78" height="43"/><text class="mono-small" x="231.0" y="128.5" text-anchor="middle">B</text>
<rect class="box" x="270" y="100" width="78" height="43"/><text class="mono-small" x="309.0" y="128.5" text-anchor="middle">C</text>
<rect class="box" x="348" y="100" width="78" height="43"/><text class="mono-small" x="387.0" y="128.5" text-anchor="middle">A+B</text>
<rect class="box" x="426" y="100" width="78" height="43"/><text class="mono-small" x="465.0" y="128.5" text-anchor="middle">A'+B'</text>
<rect class="box" x="504" y="100" width="78" height="43"/><text class="mono-small" x="543.0" y="128.5" text-anchor="middle">B'+C'</text>
<rect class="box" x="582" y="100" width="78" height="43"/><text class="mono-small" x="621.0" y="128.5" text-anchor="middle">F</text>
<rect class="box" x="36" y="143" width="78" height="43"/><text class="mono-small" x="75.0" y="171.5" text-anchor="middle">0</text>
<rect class="box" x="114" y="143" width="78" height="43"/><text class="mono-small" x="153.0" y="171.5" text-anchor="middle">0</text>
<rect class="box" x="192" y="143" width="78" height="43"/><text class="mono-small" x="231.0" y="171.5" text-anchor="middle">0</text>
<rect class="box" x="270" y="143" width="78" height="43"/><text class="mono-small" x="309.0" y="171.5" text-anchor="middle">0</text>
<rect class="hit-zero" x="348" y="143" width="78" height="43"/><text class="mono-small" x="387.0" y="171.5" text-anchor="middle">0</text>
<rect class="box" x="426" y="143" width="78" height="43"/><text class="mono-small" x="465.0" y="171.5" text-anchor="middle">1</text>
<rect class="box" x="504" y="143" width="78" height="43"/><text class="mono-small" x="543.0" y="171.5" text-anchor="middle">1</text>
<rect class="hit-zero" x="582" y="143" width="78" height="43"/><text class="mono-small" x="621.0" y="171.5" text-anchor="middle">0</text>
<rect class="box" x="36" y="186" width="78" height="43"/><text class="mono-small" x="75.0" y="214.5" text-anchor="middle">1</text>
<rect class="box" x="114" y="186" width="78" height="43"/><text class="mono-small" x="153.0" y="214.5" text-anchor="middle">0</text>
<rect class="box" x="192" y="186" width="78" height="43"/><text class="mono-small" x="231.0" y="214.5" text-anchor="middle">0</text>
<rect class="box" x="270" y="186" width="78" height="43"/><text class="mono-small" x="309.0" y="214.5" text-anchor="middle">1</text>
<rect class="hit-zero" x="348" y="186" width="78" height="43"/><text class="mono-small" x="387.0" y="214.5" text-anchor="middle">0</text>
<rect class="box" x="426" y="186" width="78" height="43"/><text class="mono-small" x="465.0" y="214.5" text-anchor="middle">1</text>
<rect class="box" x="504" y="186" width="78" height="43"/><text class="mono-small" x="543.0" y="214.5" text-anchor="middle">1</text>
<rect class="hit-zero" x="582" y="186" width="78" height="43"/><text class="mono-small" x="621.0" y="214.5" text-anchor="middle">0</text>
<rect class="box" x="36" y="229" width="78" height="43"/><text class="mono-small" x="75.0" y="257.5" text-anchor="middle">2</text>
<rect class="box" x="114" y="229" width="78" height="43"/><text class="mono-small" x="153.0" y="257.5" text-anchor="middle">0</text>
<rect class="box" x="192" y="229" width="78" height="43"/><text class="mono-small" x="231.0" y="257.5" text-anchor="middle">1</text>
<rect class="box" x="270" y="229" width="78" height="43"/><text class="mono-small" x="309.0" y="257.5" text-anchor="middle">0</text>
<rect class="box" x="348" y="229" width="78" height="43"/><text class="mono-small" x="387.0" y="257.5" text-anchor="middle">1</text>
<rect class="box" x="426" y="229" width="78" height="43"/><text class="mono-small" x="465.0" y="257.5" text-anchor="middle">1</text>
<rect class="box" x="504" y="229" width="78" height="43"/><text class="mono-small" x="543.0" y="257.5" text-anchor="middle">1</text>
<rect class="box" x="582" y="229" width="78" height="43"/><text class="mono-small" x="621.0" y="257.5" text-anchor="middle">1</text>
<rect class="box" x="36" y="272" width="78" height="43"/><text class="mono-small" x="75.0" y="300.5" text-anchor="middle">3</text>
<rect class="box" x="114" y="272" width="78" height="43"/><text class="mono-small" x="153.0" y="300.5" text-anchor="middle">0</text>
<rect class="box" x="192" y="272" width="78" height="43"/><text class="mono-small" x="231.0" y="300.5" text-anchor="middle">1</text>
<rect class="box" x="270" y="272" width="78" height="43"/><text class="mono-small" x="309.0" y="300.5" text-anchor="middle">1</text>
<rect class="box" x="348" y="272" width="78" height="43"/><text class="mono-small" x="387.0" y="300.5" text-anchor="middle">1</text>
<rect class="box" x="426" y="272" width="78" height="43"/><text class="mono-small" x="465.0" y="300.5" text-anchor="middle">1</text>
<rect class="hit-zero" x="504" y="272" width="78" height="43"/><text class="mono-small" x="543.0" y="300.5" text-anchor="middle">0</text>
<rect class="hit-zero" x="582" y="272" width="78" height="43"/><text class="mono-small" x="621.0" y="300.5" text-anchor="middle">0</text>
<rect class="box" x="36" y="315" width="78" height="43"/><text class="mono-small" x="75.0" y="343.5" text-anchor="middle">4</text>
<rect class="box" x="114" y="315" width="78" height="43"/><text class="mono-small" x="153.0" y="343.5" text-anchor="middle">1</text>
<rect class="box" x="192" y="315" width="78" height="43"/><text class="mono-small" x="231.0" y="343.5" text-anchor="middle">0</text>
<rect class="box" x="270" y="315" width="78" height="43"/><text class="mono-small" x="309.0" y="343.5" text-anchor="middle">0</text>
<rect class="box" x="348" y="315" width="78" height="43"/><text class="mono-small" x="387.0" y="343.5" text-anchor="middle">1</text>
<rect class="box" x="426" y="315" width="78" height="43"/><text class="mono-small" x="465.0" y="343.5" text-anchor="middle">1</text>
<rect class="box" x="504" y="315" width="78" height="43"/><text class="mono-small" x="543.0" y="343.5" text-anchor="middle">1</text>
<rect class="box" x="582" y="315" width="78" height="43"/><text class="mono-small" x="621.0" y="343.5" text-anchor="middle">1</text>
<rect class="box" x="36" y="358" width="78" height="43"/><text class="mono-small" x="75.0" y="386.5" text-anchor="middle">5</text>
<rect class="box" x="114" y="358" width="78" height="43"/><text class="mono-small" x="153.0" y="386.5" text-anchor="middle">1</text>
<rect class="box" x="192" y="358" width="78" height="43"/><text class="mono-small" x="231.0" y="386.5" text-anchor="middle">0</text>
<rect class="box" x="270" y="358" width="78" height="43"/><text class="mono-small" x="309.0" y="386.5" text-anchor="middle">1</text>
<rect class="box" x="348" y="358" width="78" height="43"/><text class="mono-small" x="387.0" y="386.5" text-anchor="middle">1</text>
<rect class="box" x="426" y="358" width="78" height="43"/><text class="mono-small" x="465.0" y="386.5" text-anchor="middle">1</text>
<rect class="box" x="504" y="358" width="78" height="43"/><text class="mono-small" x="543.0" y="386.5" text-anchor="middle">1</text>
<rect class="box" x="582" y="358" width="78" height="43"/><text class="mono-small" x="621.0" y="386.5" text-anchor="middle">1</text>
<rect class="box" x="36" y="401" width="78" height="43"/><text class="mono-small" x="75.0" y="429.5" text-anchor="middle">6</text>
<rect class="box" x="114" y="401" width="78" height="43"/><text class="mono-small" x="153.0" y="429.5" text-anchor="middle">1</text>
<rect class="box" x="192" y="401" width="78" height="43"/><text class="mono-small" x="231.0" y="429.5" text-anchor="middle">1</text>
<rect class="box" x="270" y="401" width="78" height="43"/><text class="mono-small" x="309.0" y="429.5" text-anchor="middle">0</text>
<rect class="box" x="348" y="401" width="78" height="43"/><text class="mono-small" x="387.0" y="429.5" text-anchor="middle">1</text>
<rect class="hit-zero" x="426" y="401" width="78" height="43"/><text class="mono-small" x="465.0" y="429.5" text-anchor="middle">0</text>
<rect class="box" x="504" y="401" width="78" height="43"/><text class="mono-small" x="543.0" y="429.5" text-anchor="middle">1</text>
<rect class="hit-zero" x="582" y="401" width="78" height="43"/><text class="mono-small" x="621.0" y="429.5" text-anchor="middle">0</text>
<rect class="box" x="36" y="444" width="78" height="43"/><text class="mono-small" x="75.0" y="472.5" text-anchor="middle">7</text>
<rect class="box" x="114" y="444" width="78" height="43"/><text class="mono-small" x="153.0" y="472.5" text-anchor="middle">1</text>
<rect class="box" x="192" y="444" width="78" height="43"/><text class="mono-small" x="231.0" y="472.5" text-anchor="middle">1</text>
<rect class="box" x="270" y="444" width="78" height="43"/><text class="mono-small" x="309.0" y="472.5" text-anchor="middle">1</text>
<rect class="box" x="348" y="444" width="78" height="43"/><text class="mono-small" x="387.0" y="472.5" text-anchor="middle">1</text>
<rect class="hit-zero" x="426" y="444" width="78" height="43"/><text class="mono-small" x="465.0" y="472.5" text-anchor="middle">0</text>
<rect class="hit-zero" x="504" y="444" width="78" height="43"/><text class="mono-small" x="543.0" y="472.5" text-anchor="middle">0</text>
<rect class="hit-zero" x="582" y="444" width="78" height="43"/><text class="mono-small" x="621.0" y="472.5" text-anchor="middle">0</text>
    <rect class="orange" x="676" y="104" width="324" height="116"/>
    <text class="label" x="704" y="146">Sum term = OR</text>
    <text class="small" x="704" y="178">A sum term is 0 only when all inputs</text>
    <text class="small" x="704" y="204">inside that term evaluate to 0.</text>
    <rect class="red" x="676" y="258" width="324" height="114"/>
    <text class="label" x="704" y="300">Product = AND</text>
    <text class="small" x="704" y="332">AND the sum-term columns together.</text>
    <rect class="box" x="676" y="410" width="324" height="84"/>
    <text class="label" x="704" y="462">Any 0 in a column forces F = 0</text>
    <path class="arrow" d="M 620 152 C 650 152, 650 152, 676 152"/>
    <path class="arrow" d="M 620 320 C 650 320, 650 316, 676 316"/>
    
</svg>
