<svg xmlns="http://www.w3.org/2000/svg" viewBox="0 0 1060 560" width="1060" height="560">

  <style>
    svg { background: #ffffff; }
    .title { font-family: Inter, Helvetica, Arial, sans-serif; font-size: 32px; font-weight: 700; fill: #24313f; }
    .label { font-family: Inter, Helvetica, Arial, sans-serif; font-size: 23px; fill: #24313f; }
    .small { font-family: Inter, Helvetica, Arial, sans-serif; font-size: 18px; fill: #64748b; }
    .tiny { font-family: Inter, Helvetica, Arial, sans-serif; font-size: 15px; fill: #64748b; }
    .mono { font-family: ui-monospace, SFMono-Regular, Menlo, Consolas, monospace; font-size: 20px; fill: #24313f; }
    .mono-small { font-family: ui-monospace, SFMono-Regular, Menlo, Consolas, monospace; font-size: 17px; fill: #24313f; }
    .box { fill: #f8fafc; stroke: #dbe3ee; stroke-width: 2; rx: 8; }
    .blue { fill: #dbeafe; stroke: #93c5fd; stroke-width: 2.5; rx: 8; }
    .orange { fill: #ffedd5; stroke: #fdba74; stroke-width: 2.5; rx: 8; }
    .green { fill: #dcfce7; stroke: #86efac; stroke-width: 2.5; rx: 8; }
    .red { fill: #fee2e2; stroke: #fca5a5; stroke-width: 2.5; rx: 8; }
    .line { fill: none; stroke: #24313f; stroke-width: 3; stroke-linecap: round; stroke-linejoin: round; }
    .thin { fill: none; stroke: #dbe3ee; stroke-width: 2; }
    .arrow { fill: none; stroke: #24313f; stroke-width: 2.6; stroke-linecap: round; stroke-linejoin: round; marker-end: url(#arrow-dark); }
    .arrow-blue { fill: none; stroke: #2563eb; stroke-width: 3; stroke-linecap: round; stroke-linejoin: round; marker-end: url(#arrow-blue); }
    .one { fill: #dbeafe; stroke: #93c5fd; stroke-width: 2; }
    .zero { fill: #ffedd5; stroke: #fdba74; stroke-width: 2; }
    .hit-one { fill: #bfdbfe; stroke: #2563eb; stroke-width: 2; }
    .hit-zero { fill: #fed7aa; stroke: #f97316; stroke-width: 2; }
  </style>
  <defs>
    <marker id="arrow-dark" viewBox="0 0 10 10" refX="8" refY="5" markerWidth="7" markerHeight="7" orient="auto-start-reverse">
      <path d="M 0 0 L 10 5 L 0 10 z" fill="#24313f"/>
    </marker>
    <marker id="arrow-blue" viewBox="0 0 10 10" refX="8" refY="5" markerWidth="7" markerHeight="7" orient="auto-start-reverse">
      <path d="M 0 0 L 10 5 L 0 10 z" fill="#2563eb"/>
    </marker>
  </defs>


    <text class="title" x="52" y="58">SOP: build the rows where the output is 1</text>
    <rect class="box" x="42" y="100" width="84" height="43"/><text class="mono-small" x="84.0" y="128.5" text-anchor="middle">row</text>
<rect class="box" x="126" y="100" width="84" height="43"/><text class="mono-small" x="168.0" y="128.5" text-anchor="middle">A</text>
<rect class="box" x="210" y="100" width="84" height="43"/><text class="mono-small" x="252.0" y="128.5" text-anchor="middle">B</text>
<rect class="box" x="294" y="100" width="84" height="43"/><text class="mono-small" x="336.0" y="128.5" text-anchor="middle">C</text>
<rect class="box" x="378" y="100" width="84" height="43"/><text class="mono-small" x="420.0" y="128.5" text-anchor="middle">AB'C'</text>
<rect class="box" x="462" y="100" width="84" height="43"/><text class="mono-small" x="504.0" y="128.5" text-anchor="middle">A'BC'</text>
<rect class="box" x="546" y="100" width="84" height="43"/><text class="mono-small" x="588.0" y="128.5" text-anchor="middle">F</text>
<rect class="box" x="42" y="143" width="84" height="43"/><text class="mono-small" x="84.0" y="171.5" text-anchor="middle">0</text>
<rect class="box" x="126" y="143" width="84" height="43"/><text class="mono-small" x="168.0" y="171.5" text-anchor="middle">0</text>
<rect class="box" x="210" y="143" width="84" height="43"/><text class="mono-small" x="252.0" y="171.5" text-anchor="middle">0</text>
<rect class="box" x="294" y="143" width="84" height="43"/><text class="mono-small" x="336.0" y="171.5" text-anchor="middle">0</text>
<rect class="box" x="378" y="143" width="84" height="43"/><text class="mono-small" x="420.0" y="171.5" text-anchor="middle">0</text>
<rect class="box" x="462" y="143" width="84" height="43"/><text class="mono-small" x="504.0" y="171.5" text-anchor="middle">0</text>
<rect class="box" x="42" y="186" width="84" height="43"/><text class="mono-small" x="84.0" y="214.5" text-anchor="middle">1</text>
<rect class="box" x="126" y="186" width="84" height="43"/><text class="mono-small" x="168.0" y="214.5" text-anchor="middle">0</text>
<rect class="box" x="210" y="186" width="84" height="43"/><text class="mono-small" x="252.0" y="214.5" text-anchor="middle">0</text>
<rect class="box" x="294" y="186" width="84" height="43"/><text class="mono-small" x="336.0" y="214.5" text-anchor="middle">1</text>
<rect class="box" x="378" y="186" width="84" height="43"/><text class="mono-small" x="420.0" y="214.5" text-anchor="middle">0</text>
<rect class="box" x="462" y="186" width="84" height="43"/><text class="mono-small" x="504.0" y="214.5" text-anchor="middle">0</text>
<rect class="box" x="42" y="229" width="84" height="43"/><text class="mono-small" x="84.0" y="257.5" text-anchor="middle">2</text>
<rect class="box" x="126" y="229" width="84" height="43"/><text class="mono-small" x="168.0" y="257.5" text-anchor="middle">0</text>
<rect class="box" x="210" y="229" width="84" height="43"/><text class="mono-small" x="252.0" y="257.5" text-anchor="middle">1</text>
<rect class="box" x="294" y="229" width="84" height="43"/><text class="mono-small" x="336.0" y="257.5" text-anchor="middle">0</text>
<rect class="hit-one" x="378" y="229" width="84" height="43"/><text class="mono-small" x="420.0" y="257.5" text-anchor="middle">1</text>
<rect class="hit-one" x="462" y="229" width="84" height="43"/><text class="mono-small" x="504.0" y="257.5" text-anchor="middle">1</text>
<rect class="box" x="42" y="272" width="84" height="43"/><text class="mono-small" x="84.0" y="300.5" text-anchor="middle">3</text>
<rect class="box" x="126" y="272" width="84" height="43"/><text class="mono-small" x="168.0" y="300.5" text-anchor="middle">0</text>
<rect class="box" x="210" y="272" width="84" height="43"/><text class="mono-small" x="252.0" y="300.5" text-anchor="middle">1</text>
<rect class="box" x="294" y="272" width="84" height="43"/><text class="mono-small" x="336.0" y="300.5" text-anchor="middle">1</text>
<rect class="box" x="378" y="272" width="84" height="43"/><text class="mono-small" x="420.0" y="300.5" text-anchor="middle">0</text>
<rect class="box" x="462" y="272" width="84" height="43"/><text class="mono-small" x="504.0" y="300.5" text-anchor="middle">0</text>
<rect class="box" x="42" y="315" width="84" height="43"/><text class="mono-small" x="84.0" y="343.5" text-anchor="middle">4</text>
<rect class="box" x="126" y="315" width="84" height="43"/><text class="mono-small" x="168.0" y="343.5" text-anchor="middle">1</text>
<rect class="box" x="210" y="315" width="84" height="43"/><text class="mono-small" x="252.0" y="343.5" text-anchor="middle">0</text>
<rect class="hit-one" x="294" y="315" width="84" height="43"/><text class="mono-small" x="336.0" y="343.5" text-anchor="middle">0</text>
<rect class="box" x="378" y="315" width="84" height="43"/><text class="mono-small" x="420.0" y="343.5" text-anchor="middle">1</text>
<rect class="hit-one" x="462" y="315" width="84" height="43"/><text class="mono-small" x="504.0" y="343.5" text-anchor="middle">1</text>
<rect class="box" x="42" y="358" width="84" height="43"/><text class="mono-small" x="84.0" y="386.5" text-anchor="middle">5</text>
<rect class="box" x="126" y="358" width="84" height="43"/><text class="mono-small" x="168.0" y="386.5" text-anchor="middle">1</text>
<rect class="box" x="210" y="358" width="84" height="43"/><text class="mono-small" x="252.0" y="386.5" text-anchor="middle">0</text>
<rect class="box" x="294" y="358" width="84" height="43"/><text class="mono-small" x="336.0" y="386.5" text-anchor="middle">1</text>
<rect class="box" x="378" y="358" width="84" height="43"/><text class="mono-small" x="420.0" y="386.5" text-anchor="middle">0</text>
<rect class="box" x="462" y="358" width="84" height="43"/><text class="mono-small" x="504.0" y="386.5" text-anchor="middle">0</text>
<rect class="box" x="42" y="401" width="84" height="43"/><text class="mono-small" x="84.0" y="429.5" text-anchor="middle">6</text>
<rect class="box" x="126" y="401" width="84" height="43"/><text class="mono-small" x="168.0" y="429.5" text-anchor="middle">1</text>
<rect class="box" x="210" y="401" width="84" height="43"/><text class="mono-small" x="252.0" y="429.5" text-anchor="middle">1</text>
<rect class="box" x="294" y="401" width="84" height="43"/><text class="mono-small" x="336.0" y="429.5" text-anchor="middle">0</text>
<rect class="box" x="378" y="401" width="84" height="43"/><text class="mono-small" x="420.0" y="429.5" text-anchor="middle">0</text>
<rect class="box" x="462" y="401" width="84" height="43"/><text class="mono-small" x="504.0" y="429.5" text-anchor="middle">0</text>
<rect class="box" x="42" y="444" width="84" height="43"/><text class="mono-small" x="84.0" y="472.5" text-anchor="middle">7</text>
<rect class="box" x="126" y="444" width="84" height="43"/><text class="mono-small" x="168.0" y="472.5" text-anchor="middle">1</text>
<rect class="box" x="210" y="444" width="84" height="43"/><text class="mono-small" x="252.0" y="472.5" text-anchor="middle">1</text>
<rect class="box" x="294" y="444" width="84" height="43"/><text class="mono-small" x="336.0" y="472.5" text-anchor="middle">1</text>
<rect class="box" x="378" y="444" width="84" height="43"/><text class="mono-small" x="420.0" y="472.5" text-anchor="middle">0</text>
<rect class="box" x="462" y="444" width="84" height="43"/><text class="mono-small" x="504.0" y="472.5" text-anchor="middle">0</text>
    <rect class="blue" x="668" y="104" width="350" height="116"/>
    <text class="label" x="696" y="146">Product term = AND</text>
    <text class="small" x="696" y="178">A term like A'BC' is true</text>
    <text class="small" x="696" y="204">on one row.</text>
    <rect class="green" x="668" y="250" width="350" height="116"/>
    <text class="label" x="696" y="292">Sum = OR</text>
    <text class="small" x="696" y="324">OR the product-term</text>
    <text class="small" x="696" y="350">columns together.</text>
    <rect class="box" x="668" y="400" width="350" height="82"/>
    <text class="label" x="696" y="450">F = AB'C' + A'BC'</text>
    
</svg>
