<svg xmlns="http://www.w3.org/2000/svg" viewBox="0 0 760 560" width="760" height="560">

  <style>
    svg { background: #fff; }
    .wire { fill: none; stroke: #24313f; stroke-width: 4; stroke-linecap: round; stroke-linejoin: round; }
    .thin { fill: none; stroke: #24313f; stroke-width: 2.5; stroke-linecap: round; stroke-linejoin: round; }
    .dash { fill: none; stroke: #64748b; stroke-width: 2.5; stroke-linecap: round; stroke-dasharray: 8 8; }
    .current { fill: none; stroke: #2563eb; stroke-width: 4; stroke-linecap: round; stroke-linejoin: round; marker-end: url(#arrow-blue); }
    .voltage { fill: none; stroke: #f97316; stroke-width: 3; stroke-linecap: round; stroke-linejoin: round; marker-end: url(#arrow-orange); }
    .path { fill: none; stroke: #16a34a; stroke-width: 7; stroke-linecap: round; stroke-linejoin: round; opacity: .28; }
    .break { fill: none; stroke: #dc2626; stroke-width: 4; stroke-linecap: round; }
    .label { font-family: Inter, Helvetica, Arial, sans-serif; font-size: 23px; fill: #24313f; }
    .small { font-family: Inter, Helvetica, Arial, sans-serif; font-size: 18px; fill: #64748b; }
    .tiny { font-family: Inter, Helvetica, Arial, sans-serif; font-size: 15px; fill: #64748b; }
    .title { font-family: Inter, Helvetica, Arial, sans-serif; font-size: 30px; font-weight: 700; fill: #24313f; }
    .eq { font-family: Inter, Helvetica, Arial, sans-serif; font-size: 42px; font-weight: 700; fill: #24313f; }
    .node { fill: #fff; stroke: #24313f; stroke-width: 3; }
    .box { fill: #f8fafc; stroke: #e2e8f0; stroke-width: 2; rx: 8; }
    .soft-blue { fill: #eff6ff; stroke: #bfdbfe; stroke-width: 2; rx: 8; }
    .soft-orange { fill: #fff7ed; stroke: #fed7aa; stroke-width: 2; rx: 8; }
    .soft-green { fill: #f0fdf4; stroke: #bbf7d0; stroke-width: 2; rx: 8; }
    .soft-red { fill: #fef2f2; stroke: #fecaca; stroke-width: 2; rx: 8; }
    .glow-dim { fill: #facc15; opacity: .18; }
    .glow-med { fill: #facc15; opacity: .34; }
    .glow-bright { fill: #facc15; opacity: .55; }
  </style>
  <defs>
    <marker id="arrow-blue" viewBox="0 0 10 10" refX="8" refY="5" markerWidth="7" markerHeight="7" orient="auto-start-reverse">
      <path d="M 0 0 L 10 5 L 0 10 z" fill="#2563eb"/>
    </marker>
    <marker id="arrow-orange" viewBox="0 0 10 10" refX="8" refY="5" markerWidth="7" markerHeight="7" orient="auto-start-reverse">
      <path d="M 0 0 L 10 5 L 0 10 z" fill="#f97316"/>
    </marker>
    <marker id="arrow-dark" viewBox="0 0 10 10" refX="8" refY="5" markerWidth="7" markerHeight="7" orient="auto-start-reverse">
      <path d="M 0 0 L 10 5 L 0 10 z" fill="#24313f"/>
    </marker>
  </defs>


    <text class="title" x="56" y="58">Kirchhoff Voltage Loop</text>
    <line class="wire" x1="250" y1="160" x2="250" y2="230"/>
    <line class="wire" x1="206" y1="230" x2="294" y2="230"/>
    <line class="wire" x1="218" y1="254" x2="282" y2="254"/>
    <line class="wire" x1="250" y1="254" x2="250" y2="390"/>
    <text class="label" x="210" y="132">+5 V</text>
    <text class="label" x="120" y="246" style="fill: #f97316">+V rise</text>
    <polyline class="wire" points="500.0,160.0 500.0,188.8 482.0,203.1 518.0,231.9 482.0,260.6 518.0,289.4 482.0,318.1 518.0,346.9 500.0,361.2 500.0,390.0"/><text class="small" x="528" y="281.0">R</text>
    <line class="wire" x1="250" y1="160" x2="500" y2="160"/><line class="wire" x1="250" y1="390" x2="500" y2="390"/>
    <path class="current" d="M 386 210 A 74 74 0 1 1 346 340 A 74 74 0 0 1 342 214"/>
    <text class="label" x="545" y="284" style="fill: #f97316">-IR drop</text>
    <rect class="soft-blue" x="168" y="462" width="424" height="54"/>
    <text class="label" x="192" y="497">Sum of Voltages around a loop = 0</text>
    
</svg>
