<svg xmlns="http://www.w3.org/2000/svg" viewBox="0 0 940 600" width="940" height="600">

  <style>
    svg { background: #fff; }
    .wire { fill: none; stroke: #24313f; stroke-width: 4; stroke-linecap: round; stroke-linejoin: round; }
    .thin { fill: none; stroke: #24313f; stroke-width: 2.5; stroke-linecap: round; stroke-linejoin: round; }
    .dash { fill: none; stroke: #64748b; stroke-width: 2.5; stroke-linecap: round; stroke-dasharray: 8 8; }
    .current { fill: none; stroke: #2563eb; stroke-width: 4; stroke-linecap: round; stroke-linejoin: round; marker-end: url(#arrow-blue); }
    .voltage { fill: none; stroke: #f97316; stroke-width: 3; stroke-linecap: round; stroke-linejoin: round; marker-end: url(#arrow-orange); }
    .path { fill: none; stroke: #16a34a; stroke-width: 7; stroke-linecap: round; stroke-linejoin: round; opacity: .28; }
    .break { fill: none; stroke: #dc2626; stroke-width: 4; stroke-linecap: round; }
    .label { font-family: Inter, Helvetica, Arial, sans-serif; font-size: 23px; fill: #24313f; }
    .small { font-family: Inter, Helvetica, Arial, sans-serif; font-size: 18px; fill: #64748b; }
    .tiny { font-family: Inter, Helvetica, Arial, sans-serif; font-size: 15px; fill: #64748b; }
    .title { font-family: Inter, Helvetica, Arial, sans-serif; font-size: 30px; font-weight: 700; fill: #24313f; }
    .eq { font-family: Inter, Helvetica, Arial, sans-serif; font-size: 42px; font-weight: 700; fill: #24313f; }
    .node { fill: #fff; stroke: #24313f; stroke-width: 3; }
    .box { fill: #f8fafc; stroke: #e2e8f0; stroke-width: 2; rx: 8; }
    .soft-blue { fill: #eff6ff; stroke: #bfdbfe; stroke-width: 2; rx: 8; }
    .soft-orange { fill: #fff7ed; stroke: #fed7aa; stroke-width: 2; rx: 8; }
    .soft-green { fill: #f0fdf4; stroke: #bbf7d0; stroke-width: 2; rx: 8; }
    .soft-red { fill: #fef2f2; stroke: #fecaca; stroke-width: 2; rx: 8; }
    .glow-dim { fill: #facc15; opacity: .18; }
    .glow-med { fill: #facc15; opacity: .34; }
    .glow-bright { fill: #facc15; opacity: .55; }
  </style>
  <defs>
    <marker id="arrow-blue" viewBox="0 0 10 10" refX="8" refY="5" markerWidth="7" markerHeight="7" orient="auto-start-reverse">
      <path d="M 0 0 L 10 5 L 0 10 z" fill="#2563eb"/>
    </marker>
    <marker id="arrow-orange" viewBox="0 0 10 10" refX="8" refY="5" markerWidth="7" markerHeight="7" orient="auto-start-reverse">
      <path d="M 0 0 L 10 5 L 0 10 z" fill="#f97316"/>
    </marker>
    <marker id="arrow-dark" viewBox="0 0 10 10" refX="8" refY="5" markerWidth="7" markerHeight="7" orient="auto-start-reverse">
      <path d="M 0 0 L 10 5 L 0 10 z" fill="#24313f"/>
    </marker>
  </defs>

<text class="title" x="54" y="56">LED brightness depends on current</text><rect class="box" x="62" y="92" width="250" height="452"/><text class="label" x="90" y="132">High resistance</text>
<text class="small" x="163" y="160">+5 V</text><line class="wire" x1="152" y1="178" x2="228" y2="178"/><line class="wire" x1="190" y1="178" x2="190" y2="202"/>
<polyline class="wire" points="190.0,202.0 190.0,213.2 172.0,218.9 208.0,230.1 172.0,241.4 208.0,252.6 172.0,263.9 208.0,275.1 190.0,280.8 190.0,292.0"/><text class="small" x="218" y="253.0">R = high</text><line class="wire" x1="190" y1="292" x2="190" y2="320"/><circle class="glow-dim" cx="190" cy="340" r="42"/>
    <line class="wire" x1="190" y1="320" x2="190" y2="348"/>
    <polygon points="162,348 218,348 190,394" fill="none" stroke="#24313f" stroke-width="4" stroke-linejoin="round"/>
    <line class="wire" x1="160" y1="398" x2="220" y2="398"/>
    <line class="wire" x1="190" y1="398" x2="190" y2="426"/>
    <path class="thin" marker-end="url(#arrow-dark)" d="M 228 342 L 258 317"/>
    <path class="thin" marker-end="url(#arrow-dark)" d="M 243 363 L 273 338"/>
    
    <line class="wire" x1="190" y1="426" x2="190" y2="454"/>
    <line class="wire" x1="156" y1="454" x2="224" y2="454"/>
    <line class="wire" x1="168" y1="467" x2="212" y2="467"/>
    <line class="wire" x1="180" y1="480" x2="200" y2="480"/>
    
<path class="current" d="M 190 296 L 190 316"/><text class="small" x="208" y="312">I</text>
<text class="small" x="138" y="526">Dim LED</text>
<rect class="box" x="354" y="92" width="250" height="452"/><text class="label" x="382" y="132">Medium resistance</text>
<text class="small" x="455" y="160">+5 V</text><line class="wire" x1="444" y1="178" x2="520" y2="178"/><line class="wire" x1="482" y1="178" x2="482" y2="202"/>
<polyline class="wire" points="482.0,202.0 482.0,213.2 464.0,218.9 500.0,230.1 464.0,241.4 500.0,252.6 464.0,263.9 500.0,275.1 482.0,280.8 482.0,292.0"/><text class="small" x="510" y="253.0">R = medium</text><line class="wire" x1="482" y1="292" x2="482" y2="320"/><circle class="glow-med" cx="482" cy="340" r="58"/>
    <line class="wire" x1="482" y1="320" x2="482" y2="348"/>
    <polygon points="454,348 510,348 482,394" fill="none" stroke="#24313f" stroke-width="4" stroke-linejoin="round"/>
    <line class="wire" x1="452" y1="398" x2="512" y2="398"/>
    <line class="wire" x1="482" y1="398" x2="482" y2="426"/>
    <path class="thin" marker-end="url(#arrow-dark)" d="M 520 342 L 550 317"/>
    <path class="thin" marker-end="url(#arrow-dark)" d="M 535 363 L 565 338"/>
    
    <line class="wire" x1="482" y1="426" x2="482" y2="454"/>
    <line class="wire" x1="448" y1="454" x2="516" y2="454"/>
    <line class="wire" x1="460" y1="467" x2="504" y2="467"/>
    <line class="wire" x1="472" y1="480" x2="492" y2="480"/>
    
<path class="current" d="M 482 296 L 482 316"/><text class="small" x="500" y="312">I ↑</text>
<text class="small" x="430" y="526">Medium LED</text>
<rect class="box" x="646" y="92" width="250" height="452"/><text class="label" x="674" y="132">Low resistance</text>
<text class="small" x="747" y="160">+5 V</text><line class="wire" x1="736" y1="178" x2="812" y2="178"/><line class="wire" x1="774" y1="178" x2="774" y2="202"/>
<polyline class="wire" points="774.0,202.0 774.0,213.2 756.0,218.9 792.0,230.1 756.0,241.4 792.0,252.6 756.0,263.9 792.0,275.1 774.0,280.8 774.0,292.0"/><text class="small" x="802" y="253.0">R = low</text><line class="wire" x1="774" y1="292" x2="774" y2="320"/><circle class="glow-bright" cx="774" cy="340" r="74"/>
    <line class="wire" x1="774" y1="320" x2="774" y2="348"/>
    <polygon points="746,348 802,348 774,394" fill="none" stroke="#24313f" stroke-width="4" stroke-linejoin="round"/>
    <line class="wire" x1="744" y1="398" x2="804" y2="398"/>
    <line class="wire" x1="774" y1="398" x2="774" y2="426"/>
    <path class="thin" marker-end="url(#arrow-dark)" d="M 812 342 L 842 317"/>
    <path class="thin" marker-end="url(#arrow-dark)" d="M 827 363 L 857 338"/>
    
    <line class="wire" x1="774" y1="426" x2="774" y2="454"/>
    <line class="wire" x1="740" y1="454" x2="808" y2="454"/>
    <line class="wire" x1="752" y1="467" x2="796" y2="467"/>
    <line class="wire" x1="764" y1="480" x2="784" y2="480"/>
    
<path class="current" d="M 774 296 L 774 316"/><text class="small" x="792" y="312">I ↑ ↑</text>
<text class="small" x="722" y="526">Bright LED</text>
</svg>
