<svg xmlns="http://www.w3.org/2000/svg" viewBox="0 0 920 625" width="920" height="625">

  <style>
    svg { background: #fff; }
    .wire { fill: none; stroke: #24313f; stroke-width: 4; stroke-linecap: round; stroke-linejoin: round; }
    .thin { fill: none; stroke: #24313f; stroke-width: 2.5; stroke-linecap: round; stroke-linejoin: round; }
    .dash { fill: none; stroke: #64748b; stroke-width: 2.5; stroke-linecap: round; stroke-dasharray: 8 8; }
    .current { fill: none; stroke: #2563eb; stroke-width: 4; stroke-linecap: round; stroke-linejoin: round; marker-end: url(#arrow-blue); }
    .voltage { fill: none; stroke: #f97316; stroke-width: 3; stroke-linecap: round; stroke-linejoin: round; marker-end: url(#arrow-orange); }
    .path { fill: none; stroke: #16a34a; stroke-width: 7; stroke-linecap: round; stroke-linejoin: round; opacity: .28; }
    .break { fill: none; stroke: #dc2626; stroke-width: 4; stroke-linecap: round; }
    .label { font-family: Inter, Helvetica, Arial, sans-serif; font-size: 23px; fill: #24313f; }
    .small { font-family: Inter, Helvetica, Arial, sans-serif; font-size: 18px; fill: #64748b; }
    .tiny { font-family: Inter, Helvetica, Arial, sans-serif; font-size: 15px; fill: #64748b; }
    .title { font-family: Inter, Helvetica, Arial, sans-serif; font-size: 30px; font-weight: 700; fill: #24313f; }
    .eq { font-family: Inter, Helvetica, Arial, sans-serif; font-size: 42px; font-weight: 700; fill: #24313f; }
    .node { fill: #fff; stroke: #24313f; stroke-width: 3; }
    .box { fill: #f8fafc; stroke: #e2e8f0; stroke-width: 2; rx: 8; }
    .soft-blue { fill: #eff6ff; stroke: #bfdbfe; stroke-width: 2; rx: 8; }
    .soft-orange { fill: #fff7ed; stroke: #fed7aa; stroke-width: 2; rx: 8; }
    .soft-green { fill: #f0fdf4; stroke: #bbf7d0; stroke-width: 2; rx: 8; }
    .soft-red { fill: #fef2f2; stroke: #fecaca; stroke-width: 2; rx: 8; }
    .glow-dim { fill: #facc15; opacity: .18; }
    .glow-med { fill: #facc15; opacity: .34; }
    .glow-bright { fill: #facc15; opacity: .55; }
  </style>
  <defs>
    <marker id="arrow-blue" viewBox="0 0 10 10" refX="8" refY="5" markerWidth="7" markerHeight="7" orient="auto-start-reverse">
      <path d="M 0 0 L 10 5 L 0 10 z" fill="#2563eb"/>
    </marker>
    <marker id="arrow-orange" viewBox="0 0 10 10" refX="8" refY="5" markerWidth="7" markerHeight="7" orient="auto-start-reverse">
      <path d="M 0 0 L 10 5 L 0 10 z" fill="#f97316"/>
    </marker>
    <marker id="arrow-dark" viewBox="0 0 10 10" refX="8" refY="5" markerWidth="7" markerHeight="7" orient="auto-start-reverse">
      <path d="M 0 0 L 10 5 L 0 10 z" fill="#24313f"/>
    </marker>
  </defs>


    <text class="title" x="54" y="58">Parallel switches implement OR</text>
    <rect class="box" x="54" y="92" width="430" height="250"/>
    <text class="label" x="82" y="228">A</text><text class="label" x="434" y="228">B</text>
    <line class="wire" x1="110" y1="220" x2="150" y2="220"/><line class="wire" x1="150" y1="160" x2="150" y2="280"/><line class="wire" x1="390" y1="160" x2="390" y2="280"/><line class="wire" x1="390" y1="220" x2="430" y2="220"/>
    <path class="path" d="M 110 220 L 150 220 L 150 160 L 390 160 L 390 220 L 430 220"/>
    
    <line class="wire" x1="166" y1="160" x2="194" y2="160"/>
    <circle class="node" cx="200" cy="160" r="6"/>
    <line class="wire" x1="206" y1="160" x2="286" y2="160"/>
    <circle class="node" cx="286" cy="160" r="6"/>
    <line class="wire" x1="292" y1="160" x2="330" y2="160"/>
    <text class="tiny" x="216" y="194">SW1 closed</text>
    <line class="wire" x1="330" y1="160" x2="390" y2="160"/>
    
    <line class="wire" x1="166" y1="280" x2="194" y2="280"/>
    <circle class="node" cx="200" cy="280" r="6"/>
    <line class="wire" x1="206" y1="280" x2="268" y2="246"/>
    <circle class="node" cx="286" cy="280" r="6"/>
    <line class="wire" x1="292" y1="280" x2="330" y2="280"/>
    <text class="tiny" x="216" y="314">SW2 open</text>
    <line class="wire" x1="330" y1="280" x2="390" y2="280"/>
    <text class="small" x="112" y="320">Continuity exists if either branch is closed.</text>
    <rect class="box" x="536" y="92" width="330" height="250"/>
    <line class="wire" x1="550" y1="184" x2="622" y2="184"/>
    <line class="wire" x1="550" y1="252" x2="622" y2="252"/>
    <path class="wire" d="M 620 146 Q 654 218 620 290 Q 705 268 752 218 Q 705 168 620 146"/>
    <line class="wire" x1="752" y1="218" x2="814" y2="218"/>
    <text class="small" x="675" y="225">OR</text>
    
    <rect class="box" x="300" y="374" width="294" height="210"/>
<line class="thin" x1="594" y1="374" x2="594" y2="584"/>
<line class="thin" x1="496" y1="374" x2="496" y2="584"/>
<line class="thin" x1="398" y1="374" x2="398" y2="584"/>
<line class="thin" x1="300" y1="374" x2="300" y2="584"/>
<text class="label" x="530" y="570">1</text>
<text class="tiny" x="432" y="570">1</text>
<text class="tiny" x="334" y="570">1</text>
<line class="thin" x1="300" y1="542" x2="594" y2="542"/>
<text class="label" x="530" y="528">1</text>
<text class="tiny" x="432" y="528">0</text>
<text class="tiny" x="334" y="528">1</text>
<line class="thin" x1="300" y1="500" x2="594" y2="500"/>
<text class="label" x="530" y="486">1</text>
<text class="tiny" x="432" y="486">1</text>
<text class="tiny" x="334" y="486">0</text>
<line class="thin" x1="300" y1="458" x2="594" y2="458"/>
<text class="tiny" x="530" y="444">0</text>
<text class="tiny" x="432" y="444">0</text>
<text class="tiny" x="334" y="444">0</text>
<line class="thin" x1="300" y1="416" x2="594" y2="416"/>
<text class="tiny" x="518" y="401">Cont.</text>
<text class="tiny" x="420" y="401">SW2</text>
<text class="tiny" x="322" y="401">SW1</text>
    
</svg>
