<svg xmlns="http://www.w3.org/2000/svg" viewBox="0 0 800 500" width="800" height="500">

  <style>
    svg { background: #fff; }
    .wire { fill: none; stroke: #24313f; stroke-width: 4; stroke-linecap: round; stroke-linejoin: round; }
    .thin { fill: none; stroke: #24313f; stroke-width: 2.5; stroke-linecap: round; stroke-linejoin: round; }
    .dash { fill: none; stroke: #64748b; stroke-width: 2.5; stroke-linecap: round; stroke-dasharray: 8 8; }
    .current { fill: none; stroke: #2563eb; stroke-width: 4; stroke-linecap: round; stroke-linejoin: round; marker-end: url(#arrow-blue); }
    .voltage { fill: none; stroke: #f97316; stroke-width: 3; stroke-linecap: round; stroke-linejoin: round; marker-end: url(#arrow-orange); }
    .path { fill: none; stroke: #16a34a; stroke-width: 7; stroke-linecap: round; stroke-linejoin: round; opacity: .28; }
    .break { fill: none; stroke: #dc2626; stroke-width: 4; stroke-linecap: round; }
    .label { font-family: Inter, Helvetica, Arial, sans-serif; font-size: 23px; fill: #24313f; }
    .small { font-family: Inter, Helvetica, Arial, sans-serif; font-size: 18px; fill: #64748b; }
    .tiny { font-family: Inter, Helvetica, Arial, sans-serif; font-size: 15px; fill: #64748b; }
    .title { font-family: Inter, Helvetica, Arial, sans-serif; font-size: 30px; font-weight: 700; fill: #24313f; }
    .eq { font-family: Inter, Helvetica, Arial, sans-serif; font-size: 42px; font-weight: 700; fill: #24313f; }
    .node { fill: #fff; stroke: #24313f; stroke-width: 3; }
    .box { fill: #f8fafc; stroke: #e2e8f0; stroke-width: 2; rx: 8; }
    .soft-blue { fill: #eff6ff; stroke: #bfdbfe; stroke-width: 2; rx: 8; }
    .soft-orange { fill: #fff7ed; stroke: #fed7aa; stroke-width: 2; rx: 8; }
    .soft-green { fill: #f0fdf4; stroke: #bbf7d0; stroke-width: 2; rx: 8; }
    .soft-red { fill: #fef2f2; stroke: #fecaca; stroke-width: 2; rx: 8; }
    .glow-dim { fill: #facc15; opacity: .18; }
    .glow-med { fill: #facc15; opacity: .34; }
    .glow-bright { fill: #facc15; opacity: .55; }
  </style>
  <defs>
    <marker id="arrow-blue" viewBox="0 0 10 10" refX="8" refY="5" markerWidth="7" markerHeight="7" orient="auto-start-reverse">
      <path d="M 0 0 L 10 5 L 0 10 z" fill="#2563eb"/>
    </marker>
    <marker id="arrow-orange" viewBox="0 0 10 10" refX="8" refY="5" markerWidth="7" markerHeight="7" orient="auto-start-reverse">
      <path d="M 0 0 L 10 5 L 0 10 z" fill="#f97316"/>
    </marker>
    <marker id="arrow-dark" viewBox="0 0 10 10" refX="8" refY="5" markerWidth="7" markerHeight="7" orient="auto-start-reverse">
      <path d="M 0 0 L 10 5 L 0 10 z" fill="#24313f"/>
    </marker>
  </defs>


    <text class="title" x="56" y="64">Parallel resistors</text>
    <circle class="node" cx="110" cy="260" r="8"/><text class="label" x="94" y="310">A</text>
    <circle class="node" cx="650" cy="260" r="8"/><text class="label" x="640" y="310">B</text>
    <line class="wire" x1="118" y1="260" x2="210" y2="260"/><line class="wire" x1="210" y1="160" x2="210" y2="360"/><line class="wire" x1="550" y1="160" x2="550" y2="360"/><line class="wire" x1="550" y1="260" x2="642" y2="260"/>
    <polyline class="wire" points="210.0,160.0 252.5,160.0 273.8,142.0 316.2,178.0 358.8,142.0 401.2,178.0 443.8,142.0 486.2,178.0 507.5,160.0 550.0,160.0"/><text class="small" x="362.0" y="129">R1</text><polyline class="wire" points="210.0,360.0 252.5,360.0 273.8,342.0 316.2,378.0 358.8,342.0 401.2,378.0 443.8,342.0 486.2,378.0 507.5,360.0 550.0,360.0"/><text class="small" x="362.0" y="329">R2</text>
    <path class="current" d="M 285 206 L 470 206"/><text class="label" x="365" y="237" style="fill: #2563eb">I1</text>
    <path class="current" d="M 285 406 L 470 406"/><text class="label" x="365" y="437" style="fill: #2563eb">I2</text>
    <text class="label" x="222" y="248" style="fill: #f97316">+</text><text class="label" x="516" y="248" style="fill: #f97316">-</text>
    <text class="label" x="372" y="304" style="fill: #f97316">V</text>
    
</svg>
