<svg xmlns="http://www.w3.org/2000/svg" viewBox="0 0 760 500" width="760" height="500">

  <style>
    svg { background: #fff; }
    .wire { fill: none; stroke: #24313f; stroke-width: 4; stroke-linecap: round; stroke-linejoin: round; }
    .thin { fill: none; stroke: #24313f; stroke-width: 2.5; stroke-linecap: round; stroke-linejoin: round; }
    .dash { fill: none; stroke: #64748b; stroke-width: 2.5; stroke-linecap: round; stroke-dasharray: 8 8; }
    .current { fill: none; stroke: #2563eb; stroke-width: 4; stroke-linecap: round; stroke-linejoin: round; marker-end: url(#arrow-blue); }
    .voltage { fill: none; stroke: #f97316; stroke-width: 3; stroke-linecap: round; stroke-linejoin: round; marker-end: url(#arrow-orange); }
    .path { fill: none; stroke: #16a34a; stroke-width: 7; stroke-linecap: round; stroke-linejoin: round; opacity: .28; }
    .break { fill: none; stroke: #dc2626; stroke-width: 4; stroke-linecap: round; }
    .label { font-family: Inter, Helvetica, Arial, sans-serif; font-size: 23px; fill: #24313f; }
    .small { font-family: Inter, Helvetica, Arial, sans-serif; font-size: 18px; fill: #64748b; }
    .tiny { font-family: Inter, Helvetica, Arial, sans-serif; font-size: 15px; fill: #64748b; }
    .title { font-family: Inter, Helvetica, Arial, sans-serif; font-size: 30px; font-weight: 700; fill: #24313f; }
    .eq { font-family: Inter, Helvetica, Arial, sans-serif; font-size: 42px; font-weight: 700; fill: #24313f; }
    .node { fill: #fff; stroke: #24313f; stroke-width: 3; }
    .box { fill: #f8fafc; stroke: #e2e8f0; stroke-width: 2; rx: 8; }
    .soft-blue { fill: #eff6ff; stroke: #bfdbfe; stroke-width: 2; rx: 8; }
    .soft-orange { fill: #fff7ed; stroke: #fed7aa; stroke-width: 2; rx: 8; }
    .soft-green { fill: #f0fdf4; stroke: #bbf7d0; stroke-width: 2; rx: 8; }
    .soft-red { fill: #fef2f2; stroke: #fecaca; stroke-width: 2; rx: 8; }
    .glow-dim { fill: #facc15; opacity: .18; }
    .glow-med { fill: #facc15; opacity: .34; }
    .glow-bright { fill: #facc15; opacity: .55; }
  </style>
  <defs>
    <marker id="arrow-blue" viewBox="0 0 10 10" refX="8" refY="5" markerWidth="7" markerHeight="7" orient="auto-start-reverse">
      <path d="M 0 0 L 10 5 L 0 10 z" fill="#2563eb"/>
    </marker>
    <marker id="arrow-orange" viewBox="0 0 10 10" refX="8" refY="5" markerWidth="7" markerHeight="7" orient="auto-start-reverse">
      <path d="M 0 0 L 10 5 L 0 10 z" fill="#f97316"/>
    </marker>
    <marker id="arrow-dark" viewBox="0 0 10 10" refX="8" refY="5" markerWidth="7" markerHeight="7" orient="auto-start-reverse">
      <path d="M 0 0 L 10 5 L 0 10 z" fill="#24313f"/>
    </marker>
  </defs>


    <text class="title" x="56" y="64">Series resistors</text>
    <circle class="node" cx="90" cy="260" r="8"/><text class="label" x="74" y="310">A</text>
    <line class="wire" x1="98" y1="260" x2="170" y2="260"/><polyline class="wire" points="170.0,260.0 190.0,260.0 200.0,242.0 220.0,278.0 240.0,242.0 260.0,278.0 280.0,242.0 300.0,278.0 310.0,260.0 330.0,260.0"/><text class="small" x="232.0" y="229">R1</text><line class="wire" x1="330" y1="260" x2="430" y2="260"/><polyline class="wire" points="430.0,260.0 450.0,260.0 460.0,242.0 480.0,278.0 500.0,242.0 520.0,278.0 540.0,242.0 560.0,278.0 570.0,260.0 590.0,260.0"/><text class="small" x="492.0" y="229">R2</text><line class="wire" x1="590" y1="260" x2="672" y2="260"/>
    <circle class="node" cx="680" cy="260" r="8"/><text class="label" x="670" y="310">B</text>
    <path class="current" d="M 178 188 L 530 188"/><text class="label" x="340" y="176" style="fill: #2563eb">I</text>
    <text class="label" x="176" y="326" style="fill: #f97316">+</text><text class="label" x="306" y="326" style="fill: #f97316">-</text>
    <text class="label" x="226" y="372" style="fill: #f97316">V1</text>
    <text class="label" x="436" y="326" style="fill: #f97316">+</text><text class="label" x="566" y="326" style="fill: #f97316">-</text>
    <text class="label" x="486" y="372" style="fill: #f97316">V2</text>
    <text class="small" x="254" y="446">One path: the same current flows through both resistors.</text>
    
</svg>
