<svg xmlns="http://www.w3.org/2000/svg" viewBox="0 0 920 610" width="920" height="610">

  <style>
    svg { background: #fff; }
    .wire { fill: none; stroke: #24313f; stroke-width: 4; stroke-linecap: round; stroke-linejoin: round; }
    .thin { fill: none; stroke: #24313f; stroke-width: 2.5; stroke-linecap: round; stroke-linejoin: round; }
    .dash { fill: none; stroke: #64748b; stroke-width: 2.5; stroke-linecap: round; stroke-dasharray: 8 8; }
    .current { fill: none; stroke: #2563eb; stroke-width: 4; stroke-linecap: round; stroke-linejoin: round; marker-end: url(#arrow-blue); }
    .voltage { fill: none; stroke: #f97316; stroke-width: 3; stroke-linecap: round; stroke-linejoin: round; marker-end: url(#arrow-orange); }
    .path { fill: none; stroke: #16a34a; stroke-width: 7; stroke-linecap: round; stroke-linejoin: round; opacity: .28; }
    .break { fill: none; stroke: #dc2626; stroke-width: 4; stroke-linecap: round; }
    .label { font-family: Inter, Helvetica, Arial, sans-serif; font-size: 23px; fill: #24313f; }
    .small { font-family: Inter, Helvetica, Arial, sans-serif; font-size: 18px; fill: #64748b; }
    .tiny { font-family: Inter, Helvetica, Arial, sans-serif; font-size: 15px; fill: #64748b; }
    .title { font-family: Inter, Helvetica, Arial, sans-serif; font-size: 30px; font-weight: 700; fill: #24313f; }
    .eq { font-family: Inter, Helvetica, Arial, sans-serif; font-size: 42px; font-weight: 700; fill: #24313f; }
    .node { fill: #fff; stroke: #24313f; stroke-width: 3; }
    .box { fill: #f8fafc; stroke: #e2e8f0; stroke-width: 2; rx: 8; }
    .soft-blue { fill: #eff6ff; stroke: #bfdbfe; stroke-width: 2; rx: 8; }
    .soft-orange { fill: #fff7ed; stroke: #fed7aa; stroke-width: 2; rx: 8; }
    .soft-green { fill: #f0fdf4; stroke: #bbf7d0; stroke-width: 2; rx: 8; }
    .soft-red { fill: #fef2f2; stroke: #fecaca; stroke-width: 2; rx: 8; }
    .glow-dim { fill: #facc15; opacity: .18; }
    .glow-med { fill: #facc15; opacity: .34; }
    .glow-bright { fill: #facc15; opacity: .55; }
  </style>
  <defs>
    <marker id="arrow-blue" viewBox="0 0 10 10" refX="8" refY="5" markerWidth="7" markerHeight="7" orient="auto-start-reverse">
      <path d="M 0 0 L 10 5 L 0 10 z" fill="#2563eb"/>
    </marker>
    <marker id="arrow-orange" viewBox="0 0 10 10" refX="8" refY="5" markerWidth="7" markerHeight="7" orient="auto-start-reverse">
      <path d="M 0 0 L 10 5 L 0 10 z" fill="#f97316"/>
    </marker>
    <marker id="arrow-dark" viewBox="0 0 10 10" refX="8" refY="5" markerWidth="7" markerHeight="7" orient="auto-start-reverse">
      <path d="M 0 0 L 10 5 L 0 10 z" fill="#24313f"/>
    </marker>
  </defs>


    <text class="title" x="54" y="58">Series switches implement AND</text>
    <rect class="box" x="54" y="92" width="430" height="230"/>
    <path class="path" d="M 95 212 L 420 212"/><text class="label" x="82" y="218">A</text><text class="label" x="434" y="218">B</text>
    
    <line class="wire" x1="112" y1="212" x2="140" y2="212"/>
    <circle class="node" cx="146" cy="212" r="6"/>
    <line class="wire" x1="152" y1="212" x2="232" y2="212"/>
    <circle class="node" cx="232" cy="212" r="6"/>
    <line class="wire" x1="238" y1="212" x2="276" y2="212"/>
    <text class="tiny" x="162" y="246">SW1 closed</text>
    
    <line class="wire" x1="260" y1="212" x2="288" y2="212"/>
    <circle class="node" cx="294" cy="212" r="6"/>
    <line class="wire" x1="300" y1="212" x2="380" y2="212"/>
    <circle class="node" cx="380" cy="212" r="6"/>
    <line class="wire" x1="386" y1="212" x2="424" y2="212"/>
    <text class="tiny" x="310" y="246">SW2 closed</text>
    
    <text class="small" x="118" y="292">Conductive only when both switches are closed.</text>
    <rect class="box" x="536" y="92" width="330" height="230"/>
    <line class="wire" x1="550" y1="174" x2="620" y2="174"/>
    <line class="wire" x1="550" y1="242" x2="620" y2="242"/>
    <path class="wire" d="M 620 138 L 678 138 A 70 70 0 0 1 678 278 L 620 278 Z"/>
    <line class="wire" x1="748" y1="208" x2="814" y2="208"/>
    <text class="small" x="656" y="215">AND</text>
    
    <rect class="box" x="300" y="360" width="294" height="210"/>
<line class="thin" x1="594" y1="360" x2="594" y2="570"/>
<line class="thin" x1="496" y1="360" x2="496" y2="570"/>
<line class="thin" x1="398" y1="360" x2="398" y2="570"/>
<line class="thin" x1="300" y1="360" x2="300" y2="570"/>
<text class="label" x="530" y="556">1</text>
<text class="tiny" x="432" y="556">1</text>
<text class="tiny" x="334" y="556">1</text>
<line class="thin" x1="300" y1="528" x2="594" y2="528"/>
<text class="tiny" x="530" y="514">0</text>
<text class="tiny" x="432" y="514">0</text>
<text class="tiny" x="334" y="514">1</text>
<line class="thin" x1="300" y1="486" x2="594" y2="486"/>
<text class="tiny" x="530" y="472">0</text>
<text class="tiny" x="432" y="472">1</text>
<text class="tiny" x="334" y="472">0</text>
<line class="thin" x1="300" y1="444" x2="594" y2="444"/>
<text class="tiny" x="530" y="430">0</text>
<text class="tiny" x="432" y="430">0</text>
<text class="tiny" x="334" y="430">0</text>
<line class="thin" x1="300" y1="402" x2="594" y2="402"/>
<text class="tiny" x="518" y="387">Cont.</text>
<text class="tiny" x="420" y="387">SW2</text>
<text class="tiny" x="322" y="387">SW1</text>
    
</svg>
