<svg xmlns="http://www.w3.org/2000/svg" viewBox="0 0 760 560" width="760" height="560">

  <style>
    svg { background: #fff; }
    .wire { fill: none; stroke: #24313f; stroke-width: 4; stroke-linecap: round; stroke-linejoin: round; }
    .thin { fill: none; stroke: #24313f; stroke-width: 2.5; stroke-linecap: round; stroke-linejoin: round; }
    .dash { fill: none; stroke: #64748b; stroke-width: 2.5; stroke-linecap: round; stroke-dasharray: 8 8; }
    .current { fill: none; stroke: #2563eb; stroke-width: 4; stroke-linecap: round; stroke-linejoin: round; marker-end: url(#arrow-blue); }
    .voltage { fill: none; stroke: #f97316; stroke-width: 3; stroke-linecap: round; stroke-linejoin: round; marker-end: url(#arrow-orange); }
    .path { fill: none; stroke: #16a34a; stroke-width: 7; stroke-linecap: round; stroke-linejoin: round; opacity: .28; }
    .break { fill: none; stroke: #dc2626; stroke-width: 4; stroke-linecap: round; }
    .label { font-family: Inter, Helvetica, Arial, sans-serif; font-size: 23px; fill: #24313f; }
    .small { font-family: Inter, Helvetica, Arial, sans-serif; font-size: 18px; fill: #64748b; }
    .tiny { font-family: Inter, Helvetica, Arial, sans-serif; font-size: 15px; fill: #64748b; }
    .title { font-family: Inter, Helvetica, Arial, sans-serif; font-size: 30px; font-weight: 700; fill: #24313f; }
    .eq { font-family: Inter, Helvetica, Arial, sans-serif; font-size: 42px; font-weight: 700; fill: #24313f; }
    .node { fill: #fff; stroke: #24313f; stroke-width: 3; }
    .box { fill: #f8fafc; stroke: #e2e8f0; stroke-width: 2; rx: 8; }
    .soft-blue { fill: #eff6ff; stroke: #bfdbfe; stroke-width: 2; rx: 8; }
    .soft-orange { fill: #fff7ed; stroke: #fed7aa; stroke-width: 2; rx: 8; }
    .soft-green { fill: #f0fdf4; stroke: #bbf7d0; stroke-width: 2; rx: 8; }
    .soft-red { fill: #fef2f2; stroke: #fecaca; stroke-width: 2; rx: 8; }
    .glow-dim { fill: #facc15; opacity: .18; }
    .glow-med { fill: #facc15; opacity: .34; }
    .glow-bright { fill: #facc15; opacity: .55; }
  </style>
  <defs>
    <marker id="arrow-blue" viewBox="0 0 10 10" refX="8" refY="5" markerWidth="7" markerHeight="7" orient="auto-start-reverse">
      <path d="M 0 0 L 10 5 L 0 10 z" fill="#2563eb"/>
    </marker>
    <marker id="arrow-orange" viewBox="0 0 10 10" refX="8" refY="5" markerWidth="7" markerHeight="7" orient="auto-start-reverse">
      <path d="M 0 0 L 10 5 L 0 10 z" fill="#f97316"/>
    </marker>
    <marker id="arrow-dark" viewBox="0 0 10 10" refX="8" refY="5" markerWidth="7" markerHeight="7" orient="auto-start-reverse">
      <path d="M 0 0 L 10 5 L 0 10 z" fill="#24313f"/>
    </marker>
  </defs>


    <text class="title" x="56" y="58">Single-loop LED circuit</text>
    <text class="label" x="276" y="103">+5 V</text>
    <line class="wire" x1="292" y1="124" x2="368" y2="124"/>
    <text class="small" x="430" y="132">Voltage Source</text>
    <line class="wire" x1="330" y1="124" x2="330" y2="206"/>
    <path class="current" d="M 330 150 L 330 196"/>
    <text class="label" x="350" y="180" style="fill: #2563eb">I</text>
    <polyline class="wire" points="330.0,206.0 330.0,220.2 312.0,227.4 348.0,241.6 312.0,255.9 348.0,270.1 312.0,284.4 348.0,298.6 330.0,305.8 330.0,320.0"/><text class="small" x="358" y="269.0">R</text>
    <text class="small" x="430" y="267">Current-Limiting Resistor</text>
    <line class="wire" x1="330" y1="320" x2="330" y2="342"/>
    
    <line class="wire" x1="330" y1="342" x2="330" y2="370"/>
    <polygon points="302,370 358,370 330,416" fill="none" stroke="#24313f" stroke-width="4" stroke-linejoin="round"/>
    <line class="wire" x1="300" y1="420" x2="360" y2="420"/>
    <line class="wire" x1="330" y1="420" x2="330" y2="448"/>
    <path class="thin" marker-end="url(#arrow-dark)" d="M 368 364 L 398 339"/>
    <path class="thin" marker-end="url(#arrow-dark)" d="M 383 385 L 413 360"/>
    
    <text class="small" x="430" y="398">LED Load</text>
    
    <line class="wire" x1="330" y1="448" x2="330" y2="476"/>
    <line class="wire" x1="296" y1="476" x2="364" y2="476"/>
    <line class="wire" x1="308" y1="489" x2="352" y2="489"/>
    <line class="wire" x1="320" y1="502" x2="340" y2="502"/>
    
    
</svg>
